<?xml version="1.0" encoding="UTF-8"?>
<svg width="512" height="512" viewBox="0 0 512 512" xmlns="http://www.w3.org/2000/svg">
    <defs>
        <linearGradient id="crown" x1="0%" y1="0%" x2="100%" y2="100%">
            <stop offset="0%" style="stop-color:#ffd700;stop-opacity:1" />
            <stop offset="50%" style="stop-color:#daa520;stop-opacity:1" />
            <stop offset="100%" style="stop-color:#ffd700;stop-opacity:1" />
        </linearGradient>
        <filter id="glow">
            <feGaussianBlur stdDeviation="4" result="coloredBlur"/>
            <feMerge>
                <feMergeNode in="coloredBlur"/>
                <feMergeNode in="SourceGraphic"/>
            </feMerge>
        </filter>
        <radialGradient id="jewel" cx="50%" cy="50%" r="50%">
            <stop offset="0%" style="stop-color:#4169e1;stop-opacity:1" />
            <stop offset="70%" style="stop-color:#1e90ff;stop-opacity:1" />
            <stop offset="100%" style="stop-color:#87ceeb;stop-opacity:1" />
        </radialGradient>
    </defs>
    <g transform="translate(50, 50) scale(0.8)" filter="url(#glow)">
        <!-- Crown base -->
        <path d="M150 300 L200 200 L275 250 L350 200 L400 300 Z" 
              fill="url(#crown)" stroke="#ffd700" stroke-width="8"/>
        
        <!-- Crown points -->
        <path d="M200 200 L225 150 L275 200 L325 150 L350 200" 
              fill="none" stroke="#ffd700" stroke-width="8"/>
        
        <!-- Jewels -->
        <g>
            <!-- Center large jewel -->
            <circle cx="275" cy="225" r="20" fill="url(#jewel)" stroke="#4169e1" stroke-width="2"/>
            <!-- Side jewels -->
            <circle cx="225" cy="175" r="15" fill="#ff0000" stroke="#ffd700" stroke-width="2"/>
            <circle cx="325" cy="175" r="15" fill="#00ff00" stroke="#ffd700" stroke-width="2"/>
            <circle cx="225" cy="250" r="12" fill="#9400d3" stroke="#ffd700" stroke-width="2"/>
            <circle cx="325" cy="250" r="12" fill="#ff4500" stroke="#ffd700" stroke-width="2"/>
        </g>
        
        <!-- Sparkles -->
        <g fill="#ffffff">
            <path d="M225 165 L230 170 L225 175 L220 170 Z"/>
            <path d="M325 165 L330 170 L325 175 L320 170 Z"/>
            <path d="M275 215 L280 220 L275 225 L270 220 Z"/>
        </g>
    </g>
</svg> 