<?xml version="1.0" encoding="UTF-8"?>
<svg width="512" height="512" viewBox="0 0 512 512" xmlns="http://www.w3.org/2000/svg">
    <defs>
        <linearGradient id="crown" x1="0%" y1="0%" x2="100%" y2="100%">
            <stop offset="0%" style="stop-color:#ff69b4;stop-opacity:1" />
            <stop offset="50%" style="stop-color:#da70d6;stop-opacity:1" />
            <stop offset="100%" style="stop-color:#ff1493;stop-opacity:1" />
        </linearGradient>
        <filter id="glow">
            <feGaussianBlur stdDeviation="4" result="coloredBlur"/>
            <feMerge>
                <feMergeNode in="coloredBlur"/>
                <feMergeNode in="SourceGraphic"/>
            </feMerge>
        </filter>
    </defs>
    <g transform="translate(50, 50) scale(0.8)" filter="url(#glow)">
        <!-- Crown base -->
        <path d="M200 300 L150 200 L250 250 L350 200 L400 300 Z" 
              fill="url(#crown)" stroke="#ff69b4" stroke-width="8"/>
        
        <!-- Crown points -->
        <path d="M150 200 L200 150 L250 200 L300 150 L350 200" 
              fill="none" stroke="#ff69b4" stroke-width="8"/>
        
        <!-- Hearts -->
        <g fill="#ff1493">
            <path d="M190 180 Q200 160 210 180 T230 180 Q230 200 210 220 Q190 200 190 180"/>
            <path d="M270 180 Q280 160 290 180 T310 180 Q310 200 290 220 Q270 200 270 180"/>
            <path d="M230 230 Q240 210 250 230 T270 230 Q270 250 250 270 Q230 250 230 230"/>
        </g>
        
        <!-- Sparkles -->
        <g fill="#ffd700">
            <circle cx="200" cy="160" r="5"/>
            <circle cx="300" cy="160" r="5"/>
            <circle cx="250" cy="210" r="5"/>
        </g>
    </g>
</svg> 